<svg width="21" height="21" viewBox="0 0 21 21" fill="none" xmlns="http://www.w3.org/2000/svg">
<path d="M18.5309 6.13325L14.8649 2.46727C14.7582 2.36062 14.6316 2.27601 14.4923 2.21829C14.3529 2.16057 14.2036 2.13086 14.0528 2.13086C13.902 2.13086 13.7526 2.16057 13.6133 2.21829C13.4739 2.27601 13.3473 2.36062 13.2407 2.46727L3.12539 12.5834C3.01853 12.6899 2.9338 12.8164 2.87608 12.9558C2.81836 13.0952 2.78878 13.2446 2.78906 13.3955V17.0615C2.78906 17.366 2.91006 17.6581 3.12543 17.8735C3.34081 18.0889 3.63292 18.2099 3.9375 18.2099H7.60348C7.75434 18.2102 7.90376 18.1806 8.04314 18.1229C8.18252 18.0652 8.3091 17.9804 8.41559 17.8736L18.5309 7.75747C18.6375 7.65082 18.7221 7.52421 18.7798 7.38487C18.8376 7.24553 18.8673 7.09618 18.8673 6.94536C18.8673 6.79453 18.8376 6.64518 18.7798 6.50584C18.7221 6.3665 18.6375 6.23989 18.5309 6.13325ZM7.71914 17.1771C7.68852 17.2079 7.64692 17.2253 7.60348 17.2255H3.9375C3.89399 17.2255 3.85226 17.2082 3.82149 17.1775C3.79072 17.1467 3.77344 17.105 3.77344 17.0615V13.3955C3.77362 13.352 3.79103 13.3104 3.82184 13.2798L11.1563 5.94458L15.0536 9.8427L7.71914 17.1771ZM17.8344 7.06184L15.75 9.14626L11.8527 5.24895L13.9371 3.16372C13.9523 3.14846 13.9704 3.13636 13.9904 3.1281C14.0103 3.11985 14.0316 3.1156 14.0532 3.1156C14.0747 3.1156 14.0961 3.11985 14.116 3.1281C14.1359 3.13636 14.154 3.14846 14.1693 3.16372L17.8344 6.82969C17.8497 6.84493 17.8618 6.86302 17.87 6.88294C17.8783 6.90286 17.8825 6.92421 17.8825 6.94577C17.8825 6.96733 17.8783 6.98868 17.87 7.00859C17.8618 7.02851 17.8497 7.0466 17.8344 7.06184Z" fill="#BEBEBE"/>
</svg>
